<svg width="211" height="211" viewBox="0 0 211 211" fill="none" xmlns="http://www.w3.org/2000/svg">
<rect width="211" height="211" rx="49" fill="url(#paint0_linear_713_24)"/>
<mask id="path-2-outside-1_713_24" maskUnits="userSpaceOnUse" x="37" y="46" width="128" height="118" fill="black">
<rect fill="white" x="37" y="46" width="128" height="118"/>
<path d="M128.828 162.526C121.752 162.526 113.342 160.844 103.598 157.48L79.412 148.78C73.96 147.156 69.61 146.344 66.362 146.344C64.158 147.388 61.316 148.606 57.836 149.998C54.472 151.274 50.47 152.724 45.83 154.348C44.438 154.696 43.22 154.87 42.176 154.87C39.392 154.87 38 153.826 38 151.738C38 149.186 39.508 146.75 42.524 144.43C45.308 142.574 48.092 141.414 50.876 140.95C53.196 140.486 55.748 140.196 58.532 140.08C61.432 139.964 64.506 140.022 67.754 140.254C94.898 123.898 112.646 112.414 120.998 105.802C128.886 99.654 134.802 94.144 138.746 89.272C144.198 82.776 147.504 75.816 148.664 68.392C148.78 67.812 148.838 67.29 148.838 66.826C148.954 66.362 149.012 65.898 149.012 65.434C149.012 59.17 145.068 56.038 137.18 56.038C129.524 56.038 119.954 58.648 108.47 63.868C98.03 68.624 89.678 73.786 83.414 79.354C82.95 79.818 82.428 80.05 81.848 80.05C80.688 80.05 80.108 79.354 80.108 77.962C80.108 77.034 80.456 76.338 81.152 75.874C89.156 69.03 99.48 62.766 112.124 57.082C126.044 50.934 137.76 47.86 147.272 47.86C157.944 47.86 163.28 51.978 163.28 60.214C163.28 60.794 163.222 61.432 163.106 62.128C163.106 62.708 163.048 63.346 162.932 64.042C161.54 72.162 156.262 80.862 147.098 90.142C144.546 92.694 141.24 95.71 137.18 99.19C133.12 102.67 128.364 106.614 122.912 111.022C110.732 120.534 93.854 130.974 72.278 142.342C77.382 142.806 86.43 145.242 99.422 149.65C111.834 153.826 121.984 155.914 129.872 155.914C134.396 155.914 138.63 155.044 142.574 153.304C147.678 151.216 150.23 148.142 150.23 144.082C150.23 139.442 146.692 135.846 139.616 133.294C138.688 132.946 138.224 132.482 138.224 131.902C138.224 130.394 139.21 129.93 141.182 130.51C150.81 133.294 155.624 137.934 155.624 144.43C155.624 149.882 152.376 154.464 145.88 158.176C140.544 161.076 134.86 162.526 128.828 162.526Z"/>
</mask>
<path d="M128.828 162.526C121.752 162.526 113.342 160.844 103.598 157.48L79.412 148.78C73.96 147.156 69.61 146.344 66.362 146.344C64.158 147.388 61.316 148.606 57.836 149.998C54.472 151.274 50.47 152.724 45.83 154.348C44.438 154.696 43.22 154.87 42.176 154.87C39.392 154.87 38 153.826 38 151.738C38 149.186 39.508 146.75 42.524 144.43C45.308 142.574 48.092 141.414 50.876 140.95C53.196 140.486 55.748 140.196 58.532 140.08C61.432 139.964 64.506 140.022 67.754 140.254C94.898 123.898 112.646 112.414 120.998 105.802C128.886 99.654 134.802 94.144 138.746 89.272C144.198 82.776 147.504 75.816 148.664 68.392C148.78 67.812 148.838 67.29 148.838 66.826C148.954 66.362 149.012 65.898 149.012 65.434C149.012 59.17 145.068 56.038 137.18 56.038C129.524 56.038 119.954 58.648 108.47 63.868C98.03 68.624 89.678 73.786 83.414 79.354C82.95 79.818 82.428 80.05 81.848 80.05C80.688 80.05 80.108 79.354 80.108 77.962C80.108 77.034 80.456 76.338 81.152 75.874C89.156 69.03 99.48 62.766 112.124 57.082C126.044 50.934 137.76 47.86 147.272 47.86C157.944 47.86 163.28 51.978 163.28 60.214C163.28 60.794 163.222 61.432 163.106 62.128C163.106 62.708 163.048 63.346 162.932 64.042C161.54 72.162 156.262 80.862 147.098 90.142C144.546 92.694 141.24 95.71 137.18 99.19C133.12 102.67 128.364 106.614 122.912 111.022C110.732 120.534 93.854 130.974 72.278 142.342C77.382 142.806 86.43 145.242 99.422 149.65C111.834 153.826 121.984 155.914 129.872 155.914C134.396 155.914 138.63 155.044 142.574 153.304C147.678 151.216 150.23 148.142 150.23 144.082C150.23 139.442 146.692 135.846 139.616 133.294C138.688 132.946 138.224 132.482 138.224 131.902C138.224 130.394 139.21 129.93 141.182 130.51C150.81 133.294 155.624 137.934 155.624 144.43C155.624 149.882 152.376 154.464 145.88 158.176C140.544 161.076 134.86 162.526 128.828 162.526Z" fill="url(#paint1_linear_713_24)"/>
<path d="M103.598 157.48L103.259 158.421L103.272 158.425L103.598 157.48ZM79.412 148.78L79.7505 147.839L79.7242 147.83L79.6975 147.822L79.412 148.78ZM66.362 146.344V145.344H66.1371L65.9339 145.44L66.362 146.344ZM57.836 149.998L58.1907 150.933L58.1991 150.93L58.2074 150.926L57.836 149.998ZM45.83 154.348L46.0725 155.318L46.117 155.307L46.1604 155.292L45.83 154.348ZM42.524 144.43L41.9693 143.598L41.9411 143.617L41.9143 143.637L42.524 144.43ZM50.876 140.95L51.0404 141.936L51.0563 141.934L51.0721 141.931L50.876 140.95ZM58.532 140.08L58.492 139.081L58.4904 139.081L58.532 140.08ZM67.754 140.254L67.6828 141.251L67.9988 141.274L68.2701 141.111L67.754 140.254ZM120.998 105.802L120.383 105.013L120.377 105.018L120.998 105.802ZM138.746 89.272L137.98 88.6291L137.974 88.6359L137.969 88.6428L138.746 89.272ZM148.664 68.392L147.683 68.1959L147.679 68.2167L147.676 68.2376L148.664 68.392ZM148.838 66.826L147.868 66.5835L147.838 66.7029V66.826H148.838ZM108.47 63.868L108.056 62.9576L108.055 62.958L108.47 63.868ZM83.414 79.354L82.7496 78.6066L82.7277 78.6261L82.7069 78.6469L83.414 79.354ZM81.152 75.874L81.7067 76.706L81.7564 76.6729L81.8019 76.634L81.152 75.874ZM112.124 57.082L111.72 56.1672L111.714 56.1699L112.124 57.082ZM163.106 62.128L162.12 61.9636L162.106 62.0452V62.128H163.106ZM162.932 64.042L163.918 64.211L163.918 64.2064L162.932 64.042ZM147.098 90.142L147.805 90.8491L147.81 90.8446L147.098 90.142ZM137.18 99.19L137.831 99.9493V99.9493L137.18 99.19ZM122.912 111.022L123.528 111.81L123.534 111.805L123.541 111.8L122.912 111.022ZM72.278 142.342L71.8119 141.457L68.8231 143.032L72.1875 143.338L72.278 142.342ZM99.422 149.65L99.1007 150.597L99.1031 150.598L99.422 149.65ZM142.574 153.304L142.195 152.378L142.183 152.384L142.17 152.389L142.574 153.304ZM139.616 133.294L139.265 134.23L139.277 134.235L139.616 133.294ZM141.182 130.51L140.9 131.469L140.904 131.471L141.182 130.51ZM145.88 158.176L146.358 159.055L146.367 159.05L146.376 159.044L145.88 158.176ZM128.828 162.526V161.526C121.901 161.526 113.607 159.878 103.924 156.535L103.598 157.48L103.272 158.425C113.077 161.81 121.603 163.526 128.828 163.526V162.526ZM103.598 157.48L103.936 156.539L79.7505 147.839L79.412 148.78L79.0735 149.721L103.26 158.421L103.598 157.48ZM79.412 148.78L79.6975 147.822C74.2112 146.187 69.753 145.344 66.362 145.344V146.344V147.344C69.467 147.344 73.7088 148.125 79.1265 149.738L79.412 148.78ZM66.362 146.344L65.9339 145.44C63.7556 146.472 60.9344 147.682 57.4646 149.07L57.836 149.998L58.2074 150.926C61.6976 149.53 64.5604 148.304 66.7901 147.248L66.362 146.344ZM57.836 149.998L57.4813 149.063C54.1277 150.335 50.1342 151.782 45.4997 153.404L45.83 154.348L46.1604 155.292C50.8058 153.666 54.8163 152.213 58.1907 150.933L57.836 149.998ZM45.83 154.348L45.5875 153.378C44.2475 153.713 43.1142 153.87 42.176 153.87V154.87V155.87C43.3258 155.87 44.6285 155.679 46.0725 155.318L45.83 154.348ZM42.176 154.87V153.87C40.8802 153.87 40.0906 153.622 39.644 153.287C39.2515 152.993 39 152.538 39 151.738H38H37C37 153.026 37.4445 154.137 38.444 154.887C39.3894 155.596 40.6878 155.87 42.176 155.87V154.87ZM38 151.738H39C39 149.626 40.2388 147.449 43.1337 145.223L42.524 144.43L41.9143 143.637C38.7772 146.051 37 148.746 37 151.738H38ZM42.524 144.43L43.0787 145.262C45.7665 143.47 48.4194 142.373 51.0404 141.936L50.876 140.95L50.7116 139.964C47.7646 140.455 44.8495 141.678 41.9693 143.598L42.524 144.43ZM50.876 140.95L51.0721 141.931C53.3332 141.478 55.8327 141.193 58.5736 141.079L58.532 140.08L58.4904 139.081C55.6633 139.199 53.0588 139.494 50.6799 139.969L50.876 140.95ZM58.532 140.08L58.572 141.079C61.4307 140.965 64.4674 141.022 67.6828 141.251L67.754 140.254L67.8252 139.257C64.5446 139.022 61.4333 138.963 58.492 139.081L58.532 140.08ZM67.754 140.254L68.2701 141.111C95.4053 124.76 113.208 113.244 121.619 106.586L120.998 105.802L120.377 105.018C112.084 111.584 94.3908 123.036 67.2379 139.397L67.754 140.254ZM120.998 105.802L121.613 106.591C129.53 100.42 135.512 94.8567 139.523 89.9012L138.746 89.272L137.969 88.6428C134.092 93.4313 128.242 98.8879 120.383 105.013L120.998 105.802ZM138.746 89.272L139.512 89.9149C145.066 83.2977 148.46 76.1727 149.652 68.5464L148.664 68.392L147.676 68.2376C146.548 75.4593 143.33 82.2543 137.98 88.6291L138.746 89.272ZM148.664 68.392L149.645 68.5881C149.77 67.9602 149.838 67.3709 149.838 66.826H148.838H147.838C147.838 67.2091 147.79 67.6638 147.683 68.1959L148.664 68.392ZM148.838 66.826L149.808 67.0685C149.943 66.5277 150.012 65.9822 150.012 65.434H149.012H148.012C148.012 65.8138 147.965 66.1963 147.868 66.5835L148.838 66.826ZM149.012 65.434H150.012C150.012 62.0787 148.944 59.4052 146.676 57.6039C144.452 55.8375 141.23 55.038 137.18 55.038V56.038V57.038C141.018 57.038 143.712 57.8045 145.432 59.1701C147.108 60.5008 148.012 62.5253 148.012 65.434H149.012ZM137.18 56.038V55.038C129.318 55.038 119.596 57.7121 108.056 62.9576L108.47 63.868L108.884 64.7784C120.312 59.5839 129.73 57.038 137.18 57.038V56.038ZM108.47 63.868L108.055 62.958C97.5555 67.7413 89.1101 72.9528 82.7496 78.6066L83.414 79.354L84.0784 80.1014C90.2459 74.6192 98.5045 69.5067 108.885 64.778L108.47 63.868ZM83.414 79.354L82.7069 78.6469C82.4036 78.9502 82.1271 79.05 81.848 79.05V80.05V81.05C82.7289 81.05 83.4964 80.6858 84.1211 80.0611L83.414 79.354ZM81.848 80.05V79.05C81.4749 79.05 81.3604 78.9468 81.3112 78.8878C81.233 78.7939 81.108 78.5438 81.108 77.962H80.108H79.108C79.108 78.7722 79.273 79.5661 79.7748 80.1682C80.3056 80.8052 81.0611 81.05 81.848 81.05V80.05ZM80.108 77.962H81.108C81.108 77.3253 81.3229 76.9619 81.7067 76.706L81.152 75.874L80.5973 75.0419C79.5891 75.7141 79.108 76.7427 79.108 77.962H80.108ZM81.152 75.874L81.8019 76.634C89.7149 69.8678 99.9511 63.6506 112.534 57.9941L112.124 57.082L111.714 56.1699C99.0089 61.8814 88.5971 68.1922 80.5021 75.114L81.152 75.874ZM112.124 57.082L112.528 57.9967C126.388 51.8751 137.958 48.86 147.272 48.86V47.86V46.86C137.562 46.86 125.7 49.9929 111.72 56.1672L112.124 57.082ZM147.272 47.86V48.86C152.507 48.86 156.25 49.8749 158.667 51.7402C161.035 53.5675 162.28 56.3294 162.28 60.214H163.28H164.28C164.28 55.8625 162.857 52.4475 159.889 50.1568C156.97 47.9041 152.709 46.86 147.272 46.86V47.86ZM163.28 60.214H162.28C162.28 60.7286 162.228 61.3107 162.12 61.9636L163.106 62.128L164.092 62.2924C164.216 61.5533 164.28 60.8594 164.28 60.214H163.28ZM163.106 62.128H162.106C162.106 62.6426 162.054 63.2247 161.946 63.8776L162.932 64.042L163.918 64.2064C164.042 63.4673 164.106 62.7734 164.106 62.128H163.106ZM162.932 64.042L161.946 63.873C160.604 71.7047 155.484 80.2266 146.386 89.4394L147.098 90.142L147.81 90.8446C157.04 81.4973 162.476 72.6193 163.918 64.211L162.932 64.042ZM147.098 90.142L146.391 89.4349C143.863 91.9624 140.578 94.9603 136.529 98.4307L137.18 99.19L137.831 99.9493C141.902 96.4597 145.229 93.4255 147.805 90.8491L147.098 90.142ZM137.18 99.19L136.529 98.4307C132.478 101.903 127.73 105.841 122.283 110.244L122.912 111.022L123.541 111.8C128.998 107.387 133.762 103.437 137.831 99.9493L137.18 99.19ZM122.912 111.022L122.297 110.234C110.182 119.695 93.3617 130.103 71.8119 141.457L72.278 142.342L72.7441 143.227C94.3463 131.845 111.282 121.373 123.528 111.81L122.912 111.022ZM72.278 142.342L72.1875 143.338C77.157 143.79 86.099 146.186 99.1007 150.597L99.422 149.65L99.7433 148.703C86.761 144.298 77.607 141.822 72.3685 141.346L72.278 142.342ZM99.422 149.65L99.1031 150.598C111.559 154.789 121.828 156.914 129.872 156.914V155.914V154.914C122.14 154.914 112.109 152.863 99.7409 148.702L99.422 149.65ZM129.872 155.914V156.914C134.528 156.914 138.9 156.018 142.978 154.219L142.574 153.304L142.17 152.389C138.36 154.07 134.264 154.914 129.872 154.914V155.914ZM142.574 153.304L142.953 154.23C145.602 153.146 147.672 151.773 149.085 150.071C150.513 148.352 151.23 146.341 151.23 144.082H150.23H149.23C149.23 145.883 148.671 147.439 147.547 148.794C146.408 150.166 144.65 151.374 142.195 152.378L142.574 153.304ZM150.23 144.082H151.23C151.23 138.784 147.146 134.947 139.955 132.353L139.616 133.294L139.277 134.235C146.238 136.745 149.23 140.1 149.23 144.082H150.23ZM139.616 133.294L139.967 132.358C139.575 132.211 139.372 132.071 139.279 131.978C139.237 131.936 139.226 131.912 139.225 131.909C139.225 131.908 139.224 131.909 139.224 131.902H138.224H137.224C137.224 133.151 138.253 133.851 139.265 134.23L139.616 133.294ZM138.224 131.902H139.224C139.224 131.362 139.38 131.332 139.389 131.328C139.534 131.26 139.966 131.195 140.9 131.469L141.182 130.51L141.464 129.551C140.426 129.245 139.379 129.122 138.538 129.518C137.561 129.978 137.224 130.934 137.224 131.902H138.224ZM141.182 130.51L140.904 131.471C145.634 132.838 149.074 134.633 151.32 136.798C153.537 138.936 154.624 141.462 154.624 144.43H155.624H156.624C156.624 140.902 155.304 137.86 152.707 135.358C150.139 132.883 146.358 130.966 141.46 129.549L141.182 130.51ZM155.624 144.43H154.624C154.624 149.394 151.699 153.699 145.384 157.308L145.88 158.176L146.376 159.044C153.053 155.229 156.624 150.37 156.624 144.43H155.624ZM145.88 158.176L145.402 157.297C140.212 160.118 134.692 161.526 128.828 161.526V162.526V163.526C135.028 163.526 140.876 162.034 146.358 159.055L145.88 158.176Z" fill="url(#paint2_linear_713_24)" mask="url(#path-2-outside-1_713_24)"/>
<defs>
<linearGradient id="paint0_linear_713_24" x1="105.5" y1="0" x2="105.5" y2="211" gradientUnits="userSpaceOnUse">
<stop stop-color="#314461"/>
<stop offset="1" stop-color="#131416"/>
</linearGradient>
<linearGradient id="paint1_linear_713_24" x1="96.5" y1="45" x2="96.5" y2="165" gradientUnits="userSpaceOnUse">
<stop stop-color="#DDEDFF"/>
<stop offset="1" stop-color="#788490"/>
</linearGradient>
<linearGradient id="paint2_linear_713_24" x1="96.5" y1="45" x2="96.5" y2="165" gradientUnits="userSpaceOnUse">
<stop stop-color="white"/>
<stop offset="1" stop-color="#B4CAE0"/>
</linearGradient>
</defs>
</svg>
