<svg width="636" height="107" viewBox="0 0 636 107" fill="none" xmlns="http://www.w3.org/2000/svg">
<path d="M0 81.82V27.556H35.416C38 27.556 40.3813 27.9107 42.56 28.62C44.7387 29.2787 46.6133 30.292 48.184 31.66C49.8053 33.028 51.0467 34.7253 51.908 36.752C52.82 38.7787 53.276 41.1093 53.276 43.744C53.276 46.3787 52.82 48.7093 51.908 50.736C51.0467 52.7627 49.8053 54.46 48.184 55.828C46.6133 57.196 44.7387 58.2347 42.56 58.944C40.3813 59.6027 38 59.932 35.416 59.932H7.6V81.82H0ZM7.6 53.852H34.428C36.7587 53.852 38.7347 53.4467 40.356 52.636C41.9773 51.8253 43.1933 50.66 44.004 49.14C44.8653 47.62 45.296 45.8213 45.296 43.744C45.296 40.6027 44.3587 38.1453 42.484 36.372C40.6093 34.548 37.924 33.636 34.428 33.636H7.6V53.852Z" fill="white"/>
<path d="M65.9953 81.82V27.556H100.499C104.401 27.556 107.973 28.1893 111.215 29.456C114.458 30.7227 117.27 32.5467 119.651 34.928C122.083 37.3093 123.958 40.172 125.275 43.516C126.593 46.86 127.251 50.584 127.251 54.688C127.251 57.9813 126.821 61.0467 125.959 63.884C125.098 66.6707 123.882 69.1787 122.311 71.408C120.741 73.5867 118.841 75.4613 116.611 77.032C114.382 78.6027 111.899 79.7933 109.163 80.604C106.478 81.4147 103.59 81.82 100.499 81.82H65.9953ZM73.5193 75.74H99.5113C101.791 75.74 103.945 75.436 105.971 74.828C107.998 74.22 109.822 73.3333 111.443 72.168C113.065 71.0027 114.458 69.5587 115.623 67.836C116.789 66.1133 117.675 64.1627 118.283 61.984C118.942 59.7547 119.271 57.3227 119.271 54.688C119.271 51.344 118.79 48.38 117.827 45.796C116.865 43.212 115.497 41.008 113.723 39.184C111.95 37.36 109.847 35.992 107.415 35.08C105.034 34.1173 102.399 33.636 99.5113 33.636H73.5193V75.74Z" fill="white"/>
<path d="M139.784 81.82V27.556H188.196V33.636H147.308V50.584H185.84V56.436H147.308V81.82H139.784Z" fill="white"/>
<path d="M372.212 81.82L353.896 27.556H361.8L378.292 77.64H375.86L393.492 27.556H402.384L419.864 77.64L417.432 77.716L434 27.556H441.144L422.676 81.82H413.936L396.532 33.18H398.356L381.028 81.82H372.212Z" fill="white"/>
<path d="M452.273 81.82V27.556H501.141V33.636H459.873V51.04H498.025V56.968H459.873V75.74H501.141V81.82H452.273Z" fill="white"/>
<path d="M515.002 81.82V27.556H550.95C555.713 27.556 559.488 28.7213 562.274 31.052C565.061 33.3827 566.454 36.5493 566.454 40.552C566.454 43.0853 565.922 45.2893 564.858 47.164C563.845 49.0387 562.35 50.5333 560.374 51.648C558.449 52.712 556.068 53.396 553.23 53.7L553.458 53.32C556.65 53.3707 559.412 53.9787 561.742 55.144C564.124 56.2587 565.948 57.8293 567.214 59.856C568.532 61.832 569.19 64.1627 569.19 66.848C569.19 69.888 568.456 72.548 566.986 74.828C565.517 77.0573 563.414 78.78 560.678 79.996C557.993 81.212 554.776 81.82 551.026 81.82H515.002ZM522.526 75.74H549.886C552.217 75.74 554.218 75.36 555.89 74.6C557.562 73.7893 558.854 72.6747 559.766 71.256C560.729 69.7867 561.21 68.0893 561.21 66.164C561.21 64.1373 560.754 62.4147 559.842 60.996C558.981 59.5267 557.74 58.412 556.118 57.652C554.497 56.8413 552.546 56.436 550.266 56.436H522.526V75.74ZM522.526 50.736H549.582C551.457 50.736 553.078 50.3813 554.446 49.672C555.814 48.912 556.878 47.8733 557.638 46.556C558.398 45.188 558.778 43.592 558.778 41.768C558.778 39.1333 557.917 37.132 556.194 35.764C554.522 34.3453 552.065 33.636 548.822 33.636H522.526V50.736Z" fill="white"/>
<path d="M582.185 81.82V27.556H617.601C620.185 27.556 622.567 27.9107 624.745 28.62C626.924 29.2787 628.798 30.292 630.369 31.66C631.99 33.028 633.232 34.7253 634.093 36.752C635.005 38.7787 635.461 41.1093 635.461 43.744C635.461 46.3787 635.005 48.7093 634.093 50.736C633.232 52.7627 631.99 54.46 630.369 55.828C628.798 57.196 626.924 58.2347 624.745 58.944C622.567 59.6027 620.185 59.932 617.601 59.932H589.785V81.82H582.185ZM589.785 53.852H616.613C618.944 53.852 620.92 53.4467 622.541 52.636C624.162 51.8253 625.378 50.66 626.189 49.14C627.05 47.62 627.481 45.8213 627.481 43.744C627.481 40.6027 626.544 38.1453 624.669 36.372C622.794 34.548 620.109 33.636 616.613 33.636H589.785V53.852Z" fill="white"/>
<path d="M289.864 106.758C283.276 106.758 275.446 105.192 266.374 102.06L243.856 93.96C238.78 92.448 234.73 91.692 231.706 91.692C229.654 92.664 227.008 93.798 223.768 95.094C220.636 96.282 216.91 97.632 212.59 99.144C211.294 99.468 210.16 99.63 209.188 99.63C206.596 99.63 205.3 98.658 205.3 96.714C205.3 94.338 206.704 92.07 209.512 89.91C212.104 88.182 214.696 87.102 217.288 86.67C219.448 86.238 221.824 85.968 224.416 85.86C227.116 85.752 229.978 85.806 233.002 86.022C258.274 70.794 274.798 60.102 282.574 53.946C289.918 48.222 295.426 43.092 299.098 38.556C304.174 32.508 307.252 26.028 308.332 19.116C308.44 18.576 308.494 18.09 308.494 17.658C308.602 17.226 308.656 16.794 308.656 16.362C308.656 10.53 304.984 7.614 297.64 7.614C290.512 7.614 281.602 10.044 270.91 14.904C261.19 19.332 253.414 24.138 247.582 29.322C247.15 29.754 246.664 29.97 246.124 29.97C245.044 29.97 244.504 29.322 244.504 28.026C244.504 27.162 244.828 26.514 245.476 26.082C252.928 19.71 262.54 13.878 274.312 8.586C287.272 2.862 298.18 0 307.036 0C316.972 0 321.94 3.834 321.94 11.502C321.94 12.042 321.886 12.636 321.778 13.284C321.778 13.824 321.724 14.418 321.616 15.066C320.32 22.626 315.406 30.726 306.874 39.366C304.498 41.742 301.42 44.55 297.64 47.79C293.86 51.03 289.432 54.702 284.356 58.806C273.016 67.662 257.302 77.382 237.214 87.966C241.966 88.398 250.39 90.666 262.486 94.77C274.042 98.658 283.492 100.602 290.836 100.602C295.048 100.602 298.99 99.792 302.662 98.172C307.414 96.228 309.79 93.366 309.79 89.586C309.79 85.266 306.496 81.918 299.908 79.542C299.044 79.218 298.612 78.786 298.612 78.246C298.612 76.842 299.53 76.41 301.366 76.95C310.33 79.542 314.812 83.862 314.812 89.91C314.812 94.986 311.788 99.252 305.74 102.708C300.772 105.408 295.48 106.758 289.864 106.758Z" fill="white"/>
</svg>
